<svg width="24" height="24" viewBox="0 0 24 24" fill="none" xmlns="http://www.w3.org/2000/svg">
<path fill-rule="evenodd" clip-rule="evenodd" d="M4 0C1.79086 0 0 1.79086 0 4V20C0 22.2091 1.79086 24 4 24H20C22.2091 24 24 22.2091 24 20V4C24 1.79086 22.2091 0 20 0H4ZM13.3946 7.25051L12 4.5L10.6054 7.25051L7.94519 5.6906L8.25904 8.75844L5.17776 8.88439L7.10038 11.2955L4.57634 13.0674L7.49732 14.0563L6.33188 16.9115L9.32383 16.1642L9.88701 19.1962L12 16.95L14.113 19.1962L14.6762 16.1642L17.6681 16.9115L16.5027 14.0563L19.4237 13.0674L16.8996 11.2955L18.8222 8.88439L15.741 8.75844L16.0548 5.6906L13.3946 7.25051Z" fill="white"/>
</svg>
