<svg width="24" height="24" viewBox="0 0 24 24" fill="none" xmlns="http://www.w3.org/2000/svg">
<path fill-rule="evenodd" clip-rule="evenodd" d="M4 0C1.79086 0 0 1.79086 0 4V20C0 22.2091 1.79086 24 4 24H20C22.2091 24 24 22.2091 24 20V4C24 1.79086 22.2091 0 20 0H4ZM19.2135 6.17C19.5955 5.78796 19.5955 5.16856 19.2135 4.78653C18.8314 4.40449 18.212 4.40449 17.83 4.78653L4.78653 17.83C4.40449 18.212 4.40449 18.8314 4.78653 19.2135C5.16856 19.5955 5.78796 19.5955 6.17 19.2135L19.2135 6.17Z" fill="white"/>
</svg>
